<svg xmlns="http://www.w3.org/2000/svg" width="512" height="512" viewBox="0 0 512 512">
  <!-- ground / snow -->
  <ellipse cx="256" cy="372" rx="226" ry="46" fill="#E3EEF7"/>
  <!-- dome -->
  <path d="M 66,360 A 190,168 0 0 1 446,360 Z" fill="#F4FAFE" stroke="#BBD5E8" stroke-width="6"/>
  <!-- block lines: horizontal arcs -->
  <path d="M 92,300 A 168,150 0 0 1 420,300" fill="none" stroke="#CBE0EF" stroke-width="5"/>
  <path d="M 132,236 A 128,120 0 0 1 380,236" fill="none" stroke="#CBE0EF" stroke-width="5"/>
  <path d="M 176,190 A 84,84 0 0 1 336,190" fill="none" stroke="#CBE0EF" stroke-width="5"/>
  <!-- vertical block dividers (lower row) -->
  <line x1="150" y1="360" x2="150" y2="300" stroke="#CBE0EF" stroke-width="5"/>
  <line x1="362" y1="360" x2="362" y2="300" stroke="#CBE0EF" stroke-width="5"/>
  <line x1="256" y1="300" x2="256" y2="236" stroke="#CBE0EF" stroke-width="5"/>
  <!-- vertical block dividers (mid row, offset) -->
  <line x1="200" y1="300" x2="188" y2="236" stroke="#CBE0EF" stroke-width="5"/>
  <line x1="312" y1="300" x2="324" y2="236" stroke="#CBE0EF" stroke-width="5"/>
  <!-- entrance tunnel -->
  <path d="M 196,360 L 196,300 A 60,60 0 0 1 316,300 L 316,360 Z" fill="#EAF4FB" stroke="#BBD5E8" stroke-width="6"/>
  <!-- entrance opening -->
  <path d="M 220,360 L 220,306 A 36,36 0 0 1 292,306 L 292,360 Z" fill="#6E9CC0"/>
</svg>
